<svg preserveAspectRatio="none" width="100%" height="100%" overflow="visible" style="display: block;" viewBox="0 0 18 15.9995" fill="none" xmlns="http://www.w3.org/2000/svg">
<path id="Vector" d="M9.00002 15.9995C8.92597 15.9995 8.85217 15.9912 8.78002 15.9745L0.780018 14.1745C0.557984 14.1259 0.359361 14.0026 0.217378 13.8251C0.075395 13.6476 -0.00133738 13.4268 1.76433e-05 13.1995V0.9995C9.2605e-05 0.84953 0.033898 0.701497 0.098931 0.566361C0.163964 0.431225 0.258559 0.312446 0.375713 0.218819C0.492867 0.125192 0.629579 0.0591139 0.775729 0.0254773C0.921878 -0.00815938 1.07372 -0.00849332 1.22002 0.0245002L9.00002 1.7725L16.78 0.0245002C16.9263 -0.00849332 17.0782 -0.00815938 17.2243 0.0254773C17.3705 0.0591139 17.5072 0.125192 17.6243 0.218819C17.7415 0.312446 17.8361 0.431225 17.9011 0.566361C17.9661 0.701497 17.9999 0.84953 18 0.9995V13.1995C18.0014 13.4268 17.9246 13.6476 17.7827 13.8251C17.6407 14.0026 17.4421 14.1259 17.22 14.1745L9.22002 15.9745C9.14787 15.9912 9.07406 15.9996 9.00002 15.9995V15.9995ZM16 2.2495L10 3.5995V13.7505L16 12.3995V2.2495ZM2.00002 2.2495V12.3995L8.00002 13.7475V3.5995L2.00002 2.2495Z" fill="var(--fill-0, #4D5560)"/>
</svg>
